HIERARCHY
ROOT Hips
{
	OFFSET -3.958830 18.904000 13.208200
	CHANNELS 6 Xposition Yposition Zposition Zrotation Yrotation Xrotation 
	JOINT LHipJoint
	{
		OFFSET 0.000000 0.000000 0.000000
		CHANNELS 3 Zrotation Yrotation Xrotation
		JOINT LeftUpLeg
		{
			OFFSET 1.800000 -1.400000 0.085000
			CHANNELS 3 Zrotation Yrotation Xrotation
			JOINT LeftLeg
			{
				OFFSET 2.215000 -6.000000 0.000000
				CHANNELS 3 Zrotation Yrotation Xrotation
				JOINT LeftFoot
				{
					OFFSET 2.500000 -6.900000 0.000000
					CHANNELS 3 Zrotation Yrotation Xrotation
					JOINT LeftToeBase
					{
						OFFSET 0.200000 -0.500000 1.950000
						CHANNELS 3 Zrotation Yrotation Xrotation
						End Site
						{
							OFFSET 0.000000 0.000000 0.000000
						}
					}
				}
			}
		}
	}
	JOINT RHipJoint
	{
		OFFSET 0.000000 0.000000 0.000000
		CHANNELS 3 Zrotation Yrotation Xrotation
		JOINT RightUpLeg
		{
			OFFSET -1.800000 -1.400000 0.085000
			CHANNELS 3 Zrotation Yrotation Xrotation
			JOINT RightLeg
			{
				OFFSET -2.215000 -6.000000 0.000000
				CHANNELS 3 Zrotation Yrotation Xrotation
				JOINT RightFoot
				{
					OFFSET -2.500000 -6.900000 0.000000
					CHANNELS 3 Zrotation Yrotation Xrotation
					JOINT RightToeBase
					{
						OFFSET -0.200000 -0.500000 1.950000
						CHANNELS 3 Zrotation Yrotation Xrotation
						End Site
						{
							OFFSET 0.000000 0.000000 0.000000
						}
					}
				}
			}
		}
	}
	JOINT LowerBack
	{
		OFFSET 0.000000 0.000000 0.000000
		CHANNELS 3 Zrotation Yrotation Xrotation
		JOINT Spine
		{
			OFFSET -0.087000 1.940000 -0.288900
			CHANNELS 3 Zrotation Yrotation Xrotation
			JOINT Spine1
			{
				OFFSET 0.000000 1.950000 0.060000
				CHANNELS 3 Zrotation Yrotation Xrotation
				JOINT Neck
				{
					OFFSET 0.000000 0.000000 0.000000
					CHANNELS 3 Zrotation Yrotation Xrotation
					JOINT Neck1
					{
						OFFSET 0.000000 1.600000 0.340000
						CHANNELS 3 Zrotation Yrotation Xrotation
						JOINT Head
						{
							OFFSET 0.000000 1.667000 -0.240000
							CHANNELS 3 Zrotation Yrotation Xrotation
							End Site
							{
								OFFSET 0.000000 0.000000 0.000000
							}
						}
					}
				}
				JOINT LeftShoulder
				{
					OFFSET 0.000000 0.000000 0.000000
					CHANNELS 3 Zrotation Yrotation Xrotation
					JOINT LeftArm
					{
						OFFSET 2.700000 1.550000 -0.730000
						CHANNELS 3 Zrotation Yrotation Xrotation
						JOINT LeftForeArm
						{
							OFFSET 5.450000 0.000000 0.000000
							CHANNELS 3 Zrotation Yrotation Xrotation
							JOINT LeftHand
							{
								OFFSET 3.450000 0.000000 0.000000
								CHANNELS 3 Zrotation Yrotation Xrotation
								JOINT LeftHandIndex1
								{
									OFFSET 0.750000 0.000000 0.000000
									CHANNELS 3 Zrotation Yrotation Xrotation
									End Site
									{
										OFFSET 0.000000 0.000000 0.000000
									}
								}
							}
						}
					}
				}
				JOINT RightShoulder
				{
					OFFSET 0.000000 0.000000 0.000000
					CHANNELS 3 Zrotation Yrotation Xrotation
					JOINT RightArm
					{
						OFFSET -2.700000 1.550000 -0.730000
						CHANNELS 3 Zrotation Yrotation Xrotation
						JOINT RightForeArm
						{
							OFFSET -5.450000 0.000000 0.000000
							CHANNELS 3 Zrotation Yrotation Xrotation
							JOINT RightHand
							{
								OFFSET -3.450000 0.000000 0.000000
								CHANNELS 3 Zrotation Yrotation Xrotation
								JOINT RightHandIndex1
								{
									OFFSET -0.750000 0.000000 0.000000
									CHANNELS 3 Zrotation Yrotation Xrotation
									End Site
									{
										OFFSET 0.000000 0.000000 0.000000
									}
								}
							}
						}
					}
				}
			}
		}
	}
}
MOTION
Frames: 10
Frame Time: 0.016667
0.204690 17.084430 -0.713460 0.190791 19.637962 13.690233 -14.888461 12.100479 2.921438 10.391150 -2.755498 -21.248527 -5.369458 3.496907 3.127892 -0.825469 4.336637 3.579203 -0.414080 -0.998050 -0.362180 18.573353 -11.354463 2.476403 -13.476258 2.778450 -19.390290 10.914887 -7.597846 18.937159 0.436954 -5.260633 2.598050 -0.109310 1.603530 0.716190 -4.696624 0.907917 -6.639648 15.217152 3.224997 0.778708 -3.032174 2.601023 1.199451 1.788966 -0.708898 -4.559719 0.368538 4.301822 14.821665 -7.792610 5.613840 15.688840 -6.069481 11.061760 0.106974 -18.118206 14.544557 -3.206391 63.054339 -78.747569 -44.017800 -4.867079 2.678690 -0.373370 1.354680 -1.018220 0.268650 2.244967 -9.787639 0.874414 24.568745 -6.390969 -8.622439 -57.654109 79.803606 -39.633551 0.897034 -1.021402 -0.595650 0.095690 0.496390 0.035580 
0.255050 17.091560 -0.682740 0.528525 20.018679 14.225641 -14.909771 12.075886 2.911559 9.725156 -2.869919 -21.217295 -5.245495 3.407930 2.869320 -0.887857 4.370602 3.601678 -0.441350 -1.035380 -0.355990 18.563903 -11.347234 2.445670 -13.744824 2.721444 -19.038522 10.624067 -7.346333 18.174431 0.487109 -5.254934 2.593121 -0.082710 1.665070 0.717350 -4.640755 0.917874 -6.553255 14.353381 3.462683 -0.029984 -2.980065 2.814614 0.802214 1.702960 -0.956130 -4.322098 0.132879 4.453234 13.142510 -8.376700 5.909320 15.481910 -7.038924 11.740485 -0.072496 -17.437382 14.567921 -2.697733 41.154375 -68.810334 -23.660290 -5.203877 3.608409 -0.418140 1.423560 -1.083510 0.252280 3.429556 -10.235714 0.938783 23.986245 -7.125727 -7.807906 -41.886896 69.869824 -23.894208 1.250047 -1.993642 -0.645620 0.116110 0.522140 0.017430 
0.300340 17.097860 -0.656820 0.866499 20.349352 14.577531 -14.930435 12.069299 2.900166 9.109771 -2.962532 -21.023902 -5.120554 3.319211 2.621944 -0.962982 4.424915 3.609905 -0.437560 -1.054170 -0.307960 18.553409 -11.334571 2.411065 -14.035511 2.646856 -18.520282 10.362260 -7.140715 17.416298 0.507746 -5.261324 2.571462 -0.050510 1.704200 0.744880 -4.587537 0.886337 -6.473625 13.443625 3.726419 -0.647651 -2.859863 3.023729 0.410062 1.692091 -1.016706 -4.023474 0.160513 4.524660 11.922756 -9.298360 6.396050 14.931360 -7.994902 11.902312 -0.399610 -16.263357 14.607046 -2.495631 31.003678 -58.856581 -14.090044 -5.363650 3.783527 -0.434480 1.485690 -1.118410 0.237050 4.432167 -10.361484 0.913687 23.471660 -7.381372 -7.223473 -36.234286 59.677706 -16.627252 1.372689 -2.236815 -0.685140 0.126160 0.534770 -0.015370 
0.339040 17.101950 -0.636410 1.191544 20.588045 14.684178 -14.946718 12.087776 2.898050 8.590251 -2.996473 -20.663694 -5.097063 3.263107 2.383579 -1.012915 4.446771 3.610285 -0.421130 -1.045380 -0.260970 18.539794 -11.328566 2.377173 -14.306958 2.540350 -17.899458 10.035966 -6.957409 16.790137 0.505752 -5.233431 2.568057 -0.024540 1.701790 0.749810 -4.543515 0.819013 -6.432104 12.733140 3.876859 -0.937071 -2.948667 3.173860 0.356370 1.661945 -1.128928 -4.038747 0.017709 4.665368 11.345712 -9.807380 6.731380 14.150710 -8.794560 11.450569 -0.493879 -15.193864 14.796374 -2.484663 25.549839 -48.823687 -8.951789 -5.424908 3.778236 -0.417730 1.498210 -1.114350 0.224320 5.312564 -9.856672 1.119969 23.204485 -7.526431 -6.827815 -34.287323 50.124280 -12.823166 1.473418 -2.295933 -0.709560 0.142700 0.533580 -0.042280 
0.374820 17.102570 -0.621350 1.354422 20.752166 14.566336 -14.954636 12.107214 2.889708 8.266367 -2.972788 -20.119575 -5.081065 3.212856 2.082317 -1.054559 4.459555 3.603650 -0.381510 -1.007490 -0.203790 18.533029 -11.323861 2.350466 -14.514232 2.425853 -17.181636 9.817900 -6.808095 16.167539 0.485253 -5.200434 2.568211 0.009230 1.672900 0.742890 -4.524348 0.759593 -6.406070 12.421877 3.997319 -1.125000 -3.082351 3.317867 0.625747 1.566497 -1.370073 -4.141235 -0.370364 4.801723 11.184616 -10.098980 6.872310 13.152860 -9.395135 10.907902 -0.509264 -14.620514 14.469000 -2.379646 22.378161 -38.818539 -5.911427 -5.442763 3.690643 -0.381770 1.481570 -1.089480 0.216760 6.112209 -9.192946 1.361999 22.668692 -7.684710 -6.380044 -33.277876 41.813393 -10.388362 1.567165 -2.308961 -0.724600 0.162580 0.517420 -0.068320 
0.407130 17.102670 -0.608480 1.404413 20.977294 14.342321 -14.962055 12.122527 2.884339 8.147934 -2.915515 -19.568941 -5.144539 3.177742 1.732916 -1.112906 4.478073 3.584182 -0.317450 -0.929730 -0.135860 18.529177 -11.316593 2.316198 -14.521100 2.288739 -16.338499 9.476895 -6.615671 15.509882 0.456059 -5.149191 2.577223 0.070340 1.630110 0.720110 -4.510166 0.696784 -6.379486 12.256875 4.030268 -1.310952 -3.071454 3.369064 1.077667 1.400988 -1.661686 -4.170635 -0.871881 5.025470 11.178003 -10.275720 6.897190 11.675760 -9.670395 10.616639 -0.532772 -14.626190 13.638077 -2.104303 20.097428 -29.206046 -3.987558 -5.454822 3.541711 -0.335890 1.452630 -1.055090 0.210370 6.736713 -8.753357 1.449090 21.835169 -7.571714 -5.818470 -32.142577 35.229963 -8.636175 1.633054 -2.300892 -0.742070 0.200700 0.493230 -0.097430 
0.438000 17.102400 -0.600420 1.322094 21.193279 14.008120 -14.969134 12.142009 2.887136 8.192543 -2.833542 -19.014043 -5.313138 3.159986 1.386377 -1.138992 4.482246 3.553813 -0.235380 -0.839950 -0.048810 18.523304 -11.304964 2.289454 -14.426288 2.168513 -15.511404 9.199351 -6.466898 14.970448 0.396836 -5.078064 2.581496 0.115330 1.546890 0.710810 -4.496093 0.622028 -6.375792 12.256790 4.062312 -1.306279 -3.041391 3.436686 1.468309 1.318574 -1.950266 -4.268346 -1.403091 5.163041 11.532443 -10.434670 6.946340 9.973030 -9.853973 10.386642 -0.536249 -14.880699 12.673267 -1.764021 18.584988 -20.449168 -2.809199 -5.436957 3.377474 -0.263300 1.385880 -0.977900 0.207350 7.090373 -8.359058 1.583254 21.046386 -7.564085 -5.407206 -31.031351 30.227669 -7.317037 1.703430 -2.270466 -0.731670 0.217410 0.452150 -0.124050 
0.466370 17.100960 -0.594480 1.254977 21.394407 13.623733 -14.978634 12.170435 2.889595 8.262527 -2.740176 -18.457962 -5.494440 3.163468 1.146558 -1.149579 4.467454 3.520486 -0.149320 -0.749340 0.042090 18.513230 -11.292126 2.268123 -14.362677 2.041398 -14.670437 8.965678 -6.347101 14.472972 0.330297 -5.000433 2.589455 0.148010 1.442230 0.696840 -4.474136 0.532901 -6.381329 12.175876 4.100612 -1.174624 -3.068538 3.519550 1.802678 1.335622 -2.166491 -4.357900 -1.845673 5.271391 12.144880 -10.452120 6.977990 8.186390 -10.156507 10.175967 -0.554865 -14.931751 11.854411 -1.379692 17.999438 -13.414974 -2.106190 -5.399767 3.232653 -0.179740 1.297630 -0.889110 0.200180 7.361862 -8.032883 1.708095 20.415603 -7.568238 -5.137192 -30.012550 26.452038 -6.319399 1.770147 -2.223557 -0.709190 0.223450 0.406760 -0.151620 
0.492620 17.099220 -0.589400 1.200081 21.487264 13.277984 -14.984415 12.195141 2.891700 8.292475 -2.652230 -17.936039 -5.593208 3.152662 0.904827 -1.141584 4.432556 3.496465 -0.077750 -0.668200 0.106930 18.505864 -11.284591 2.255255 -14.332610 1.926818 -13.934152 8.747733 -6.233598 14.001059 0.271347 -4.928909 2.599901 0.169790 1.346280 0.681330 -4.460957 0.465329 -6.393273 12.096941 4.181714 -1.003650 -3.157577 3.644922 2.026852 1.344325 -2.362325 -4.442278 -2.256502 5.398730 12.841209 -10.232900 6.946060 6.672960 -10.290190 10.028565 -0.590494 -14.734062 10.968781 -0.987450 17.094029 -7.512010 -1.539489 -5.356611 3.123489 -0.110440 1.211390 -0.809400 0.196520 7.467307 -7.758358 1.831009 20.031455 -7.498312 -4.952783 -29.224050 23.587851 -5.585704 1.832999 -2.178829 -0.680010 0.221550 0.366140 -0.166750 
0.515930 17.096440 -0.585290 1.089791 21.581733 12.987617 -14.989731 12.210328 2.883601 8.356831 -2.577998 -17.585180 -5.651352 3.159559 0.847592 -1.135985 4.411386 3.480288 -0.020470 -0.603360 0.161460 18.500532 -11.274644 2.255146 -14.301781 1.836241 -13.273914 8.706550 -6.159917 13.508826 0.219550 -4.888944 2.599969 0.190020 1.278810 0.674390 -4.448715 0.421228 -6.397215 11.950904 4.292805 -0.907013 -3.146987 3.779982 2.274241 1.370127 -2.457598 -4.484511 -2.485139 5.552084 13.368326 -10.087840 6.990130 5.437710 -10.420013 9.911462 -0.606895 -14.728070 10.354751 -0.722691 16.825656 -3.289733 -1.151374 -5.332461 3.048078 -0.059760 1.149870 -0.746080 0.198130 7.552503 -7.572192 1.868104 19.705384 -7.148406 -4.745163 -28.573006 20.995588 -4.999992 1.887928 -2.145155 -0.658840 0.223910 0.331510 -0.176060 
